<mxfile host="app.diagrams.net" modified="2024-04-07T02:34:53.350Z" agent="Mozilla/5.0 (X11; Linux x86_64) AppleWebKit/537.36 (KHTML, like Gecko) Chrome/123.0.0.0 Safari/537.36" version="24.2.2" etag="1qSY0iaO5tYReI5SheXS" type="github">
  <diagram name="PÃ¡gina-1" id="kMypcaifIKV_owygqUYh">
    <mxGraphModel>
      <root>
        <mxCell id="0" />
        <mxCell id="1" parent="0" />
      </root>
    </mxGraphModel>
  </diagram>
</mxfile>
